<?xml version="1.0" encoding="UTF-8" standalone="no"?>
<!-- Created with Inkscape (http://www.inkscape.org/) -->

<svg
   width="590.72137mm"
   height="590.72137mm"
   viewBox="0 0 590.72138 590.72136"
   version="1.1"
   id="svg1"
   sodipodi:docname="icon.svg"
   inkscape:version="1.4.3 (0d15f75, 2025-12-25)"
   xmlns:inkscape="http://www.inkscape.org/namespaces/inkscape"
   xmlns:sodipodi="http://sodipodi.sourceforge.net/DTD/sodipodi-0.dtd"
   xmlns="http://www.w3.org/2000/svg"
   xmlns:svg="http://www.w3.org/2000/svg">
  <sodipodi:namedview
     id="namedview1"
     pagecolor="#ffffff"
     bordercolor="#000000"
     borderopacity="0.25"
     inkscape:showpageshadow="2"
     inkscape:pageopacity="0.0"
     inkscape:pagecheckerboard="0"
     inkscape:deskcolor="#d1d1d1"
     inkscape:document-units="mm"
     inkscape:zoom="0.12250029"
     inkscape:cx="1477.5475"
     inkscape:cy="1408.1599"
     inkscape:window-width="2560"
     inkscape:window-height="1369"
     inkscape:window-x="1912"
     inkscape:window-y="-8"
     inkscape:window-maximized="1"
     inkscape:current-layer="layer1">
    <inkscape:page
       x="3.6622289e-06"
       y="4.5169791e-06"
       width="590.72137"
       height="590.72137"
       id="page2"
       margin="0"
       bleed="0" />
  </sodipodi:namedview>
  <defs
     id="defs1" />
  <g
     inkscape:label="Layer 1"
     inkscape:groupmode="layer"
     id="layer1"
     transform="translate(191.02183,143.57613)">
    <circle
       style="fill:#f2f2f2;stroke-width:7.99999"
       id="path2"
       cx="104.33886"
       cy="151.78456"
       r="295.36069" />
    <path
       id="text2"
       style="font-size:342.194px;font-family:System-ui;-inkscape-font-specification:System-ui;writing-mode:lr-tb;direction:ltr;fill:#333333;stroke-width:7.99999"
       d="m 101.29667,-55.24285 c -11.862737,0 -23.383389,0.912265 -34.561726,2.7373 -10.950208,1.825035 -21.444109,4.334929 -31.4818,7.52874 -16.653441,5.703233 -33.5352699,14.600022 -50.64497,26.690877 C -32.273397,-6.1950779 -46.987755,9.5460315 -59.534868,28.937024 -68.81912,43.147614 -76.372344,58.538268 -82.194467,75.1094 H 6.4125283 C 13.179347,64.268153 21.538183,54.808519 31.489033,46.73077 40.842336,39.202502 51.564174,33.499419 63.655028,29.62122 c 12.090855,-4.106328 24.638258,-6.159314 37.641642,-6.159314 10.26582,0 20.07539,1.14072 29.42869,3.422014 18.25035,4.562586 33.76301,13.116953 46.53825,25.664066 7.07201,7.300139 12.54715,15.056725 16.42535,23.269381 4.10633,7.984526 6.84364,15.627144 8.21242,22.927283 h 82.12677 C 282.65937,89.163218 280.60587,80.037974 277.86832,71.36906 275.3589,62.700145 272.27916,54.373199 268.62909,46.388672 261.10082,29.96336 251.5197,15.477456 239.88511,2.9303435 228.47864,-9.6167699 216.04572,-19.996702 202.58609,-28.209358 187.75769,-37.106402 171.90261,-43.836237 155.02104,-48.398824 138.3676,-52.96141 120.45953,-55.24285 101.29667,-55.24285 Z m 0.3421,194.02381 v 68.43872 h 104.36882 c -2.73755,8.89704 -6.38713,16.99605 -10.94972,24.29619 -4.56259,7.7564 -10.26619,14.71417 -17.11007,20.87366 -6.61575,5.93136 -13.68749,10.83615 -21.21576,14.71435 -7.98452,4.10633 -16.65337,7.30003 -26.00668,9.58133 -9.3533,2.28129 -19.0489,3.42201 -29.08659,3.42201 -13.915903,0 -26.805212,-2.05299 -38.667938,-6.15931 -12.775242,-4.33446 -23.839503,-10.37997 -33.192806,-18.13636 -9.125173,-7.7564 -16.76779,-16.53922 -22.9272817,-26.34878 -0.220913,-0.33137 -0.440494,-0.66618 -0.658875,-1.00356 H -81.89526 c 6.58192,19.8235 15.290057,36.92565 26.124503,51.30591 12.547113,16.65344 25.436423,30.11311 38.667924,40.37893 15.9690537,12.31899 33.763149,21.9001 53.382271,28.74398 19.619123,6.61576 40.492956,9.92395 62.621502,9.92395 20.75978,0 40.83531,-2.96577 60.22631,-8.89713 18.93473,-5.70324 36.3864,-13.80173 52.35546,-24.29568 15.96905,-10.49395 29.88511,-22.8129 41.74784,-36.95692 11.86272,-14.14402 21.10193,-29.5427 27.71769,-46.19614 6.61575,-16.88157 9.92394,-34.44773 9.92394,-52.69808 v -50.98707 z" />
  </g>
</svg>
